<svg width="24" height="25" viewBox="0 0 24 25" fill="none" xmlns="http://www.w3.org/2000/svg">
<path d="M10 12.5884C8.9 12.5884 7.95833 12.1967 7.175 11.4134C6.39167 10.63 6 9.68838 6 8.58838C6 7.48838 6.39167 6.54671 7.175 5.76338C7.95833 4.98005 8.9 4.58838 10 4.58838C11.1 4.58838 12.0417 4.98005 12.825 5.76338C13.6083 6.54671 14 7.48838 14 8.58838C14 9.68838 13.6083 10.63 12.825 11.4134C12.0417 12.1967 11.1 12.5884 10 12.5884ZM3 20.5884C2.71667 20.5884 2.47933 20.4924 2.288 20.3004C2.096 20.109 2 19.8717 2 19.5884V17.7884C2 17.2384 2.14167 16.7217 2.425 16.2384C2.70833 15.755 3.1 15.3884 3.6 15.1384C4.45 14.705 5.40833 14.3384 6.475 14.0384C7.54167 13.7384 8.71667 13.5884 10 13.5884H10.35C10.45 13.5884 10.55 13.605 10.65 13.6384C10.5167 13.9384 10.404 14.251 10.312 14.5764C10.2207 14.901 10.15 15.2384 10.1 15.5884H10C8.81667 15.5884 7.754 15.7384 6.812 16.0384C5.87067 16.3384 5.1 16.6384 4.5 16.9384C4.35 17.0217 4.22933 17.1384 4.138 17.2884C4.046 17.4384 4 17.605 4 17.7884V18.5884H10.3C10.4 18.9384 10.5333 19.2844 10.7 19.6264C10.8667 19.9677 11.05 20.2884 11.25 20.5884H3ZM10 10.5884C10.55 10.5884 11.021 10.3924 11.413 10.0004C11.8043 9.60905 12 9.13838 12 8.58838C12 8.03838 11.8043 7.56771 11.413 7.17638C11.021 6.78438 10.55 6.58838 10 6.58838C9.45 6.58838 8.97933 6.78438 8.588 7.17638C8.196 7.56771 8 8.03838 8 8.58838C8 9.13838 8.196 9.60905 8.588 10.0004C8.97933 10.3924 9.45 10.5884 10 10.5884ZM17 18.5884C17.55 18.5884 18.021 18.3927 18.413 18.0014C18.8043 17.6094 19 17.1384 19 16.5884C19 16.0384 18.8043 15.5674 18.413 15.1754C18.021 14.784 17.55 14.5884 17 14.5884C16.45 14.5884 15.9793 14.784 15.588 15.1754C15.196 15.5674 15 16.0384 15 16.5884C15 17.1384 15.196 17.6094 15.588 18.0014C15.9793 18.3927 16.45 18.5884 17 18.5884ZM15.7 20.0884C15.5 20.005 15.3123 19.9177 15.137 19.8264C14.9623 19.7344 14.7833 19.6217 14.6 19.4884L13.525 19.8134C13.4083 19.8467 13.3 19.8424 13.2 19.8004C13.1 19.759 13.0167 19.6884 12.95 19.5884L12.35 18.5884C12.2833 18.4884 12.2627 18.38 12.288 18.2634C12.3127 18.1467 12.375 18.0467 12.475 17.9634L13.3 17.2384C13.2667 17.005 13.25 16.7884 13.25 16.5884C13.25 16.3884 13.2667 16.1717 13.3 15.9384L12.475 15.2134C12.375 15.13 12.3127 15.03 12.288 14.9134C12.2627 14.7967 12.2833 14.6884 12.35 14.5884L12.95 13.5884C13.0167 13.4884 13.1 13.4174 13.2 13.3754C13.3 13.334 13.4083 13.33 13.525 13.3634L14.6 13.6884C14.7833 13.555 14.9623 13.4424 15.137 13.3504C15.3123 13.259 15.5 13.1717 15.7 13.0884L15.925 11.9884C15.9583 11.8717 16.0167 11.776 16.1 11.7014C16.1833 11.626 16.2833 11.5884 16.4 11.5884H17.6C17.7167 11.5884 17.8167 11.626 17.9 11.7014C17.9833 11.776 18.0417 11.8717 18.075 11.9884L18.3 13.0884C18.5 13.1717 18.6877 13.2634 18.863 13.3634C19.0377 13.4634 19.2167 13.5884 19.4 13.7384L20.45 13.3634C20.5667 13.3134 20.6793 13.3134 20.788 13.3634C20.896 13.4134 20.9833 13.4884 21.05 13.5884L21.65 14.6384C21.7167 14.7384 21.7417 14.8467 21.725 14.9634C21.7083 15.08 21.65 15.18 21.55 15.2634L20.7 15.9884C20.7333 16.1884 20.75 16.3967 20.75 16.6134C20.75 16.83 20.7333 17.0384 20.7 17.2384L21.525 17.9634C21.625 18.0467 21.6873 18.1467 21.712 18.2634C21.7373 18.38 21.7167 18.4884 21.65 18.5884L21.05 19.5884C20.9833 19.6884 20.9 19.759 20.8 19.8004C20.7 19.8424 20.5917 19.8467 20.475 19.8134L19.4 19.4884C19.2167 19.6217 19.0377 19.7344 18.863 19.8264C18.6877 19.9177 18.5 20.005 18.3 20.0884L18.075 21.1884C18.0417 21.305 17.9833 21.4007 17.9 21.4754C17.8167 21.5507 17.7167 21.5884 17.6 21.5884H16.4C16.2833 21.5884 16.1833 21.5507 16.1 21.4754C16.0167 21.4007 15.9583 21.305 15.925 21.1884L15.7 20.0884Z" fill="current"/>
</svg>
