<svg width="24" height="25" viewBox="0 0 24 25" fill="none" xmlns="http://www.w3.org/2000/svg">
<path d="M6 19.5884H9V13.5884H15V19.5884H18V10.5884L12 6.08838L6 10.5884V19.5884ZM6 21.5884C5.45 21.5884 4.97933 21.3927 4.588 21.0014C4.196 20.6094 4 20.1384 4 19.5884V10.5884C4 10.2717 4.071 9.97171 4.213 9.68838C4.35433 9.40505 4.55 9.17171 4.8 8.98838L10.8 4.48838C10.9833 4.35505 11.175 4.25505 11.375 4.18838C11.575 4.12171 11.7833 4.08838 12 4.08838C12.2167 4.08838 12.425 4.12171 12.625 4.18838C12.825 4.25505 13.0167 4.35505 13.2 4.48838L19.2 8.98838C19.45 9.17171 19.646 9.40505 19.788 9.68838C19.9293 9.97171 20 10.2717 20 10.5884V19.5884C20 20.1384 19.8043 20.6094 19.413 21.0014C19.021 21.3927 18.55 21.5884 18 21.5884H13V15.5884H11V21.5884H6Z" fill="current"/>
</svg>
