<svg width="24" height="25" viewBox="0 0 24 25" fill="none" xmlns="http://www.w3.org/2000/svg">
<g clip-path="url(#clip0_458_2016)">
<path d="M12 12.5884C14.21 12.5884 16 10.7984 16 8.58838C16 6.37838 14.21 4.58838 12 4.58838C9.79 4.58838 8 6.37838 8 8.58838C8 10.7984 9.79 12.5884 12 12.5884ZM12 6.58838C13.1 6.58838 14 7.48838 14 8.58838C14 9.68838 13.1 10.5884 12 10.5884C10.9 10.5884 10 9.68838 10 8.58838C10 7.48838 10.9 6.58838 12 6.58838ZM12 13.5884C9.33 13.5884 4 14.9284 4 17.5884V19.5884C4 20.1384 4.45 20.5884 5 20.5884H19C19.55 20.5884 20 20.1384 20 19.5884V17.5884C20 14.9284 14.67 13.5884 12 13.5884ZM18 18.5884H6V17.5984C6.2 16.8784 9.3 15.5884 12 15.5884C14.7 15.5884 17.8 16.8784 18 17.5884V18.5884Z" fill="current"/>
</g>
<defs>
<clipPath id="clip0_458_2016">
<rect width="24" height="24" fill="current" transform="translate(0 0.588379)"/>
</clipPath>
</defs>
</svg>
