<svg width="24" height="25" viewBox="0 0 24 25" fill="none" xmlns="http://www.w3.org/2000/svg">
<g clip-path="url(#clip0_458_1932)">
<path d="M23 8.58838C23 9.68838 22.1 10.5884 21 10.5884C20.82 10.5884 20.65 10.5684 20.49 10.5184L16.93 14.0684C16.98 14.2284 17 14.4084 17 14.5884C17 15.6884 16.1 16.5884 15 16.5884C13.9 16.5884 13 15.6884 13 14.5884C13 14.4084 13.02 14.2284 13.07 14.0684L10.52 11.5184C10.36 11.5684 10.18 11.5884 10 11.5884C9.82 11.5884 9.64 11.5684 9.48 11.5184L4.93 16.0784C4.98 16.2384 5 16.4084 5 16.5884C5 17.6884 4.1 18.5884 3 18.5884C1.9 18.5884 1 17.6884 1 16.5884C1 15.4884 1.9 14.5884 3 14.5884C3.18 14.5884 3.35 14.6084 3.51 14.6584L8.07 10.1084C8.02 9.94838 8 9.76838 8 9.58838C8 8.48838 8.9 7.58838 10 7.58838C11.1 7.58838 12 8.48838 12 9.58838C12 9.76838 11.98 9.94838 11.93 10.1084L14.48 12.6584C14.64 12.6084 14.82 12.5884 15 12.5884C15.18 12.5884 15.36 12.6084 15.52 12.6584L19.07 9.09838C19.02 8.93838 19 8.76838 19 8.58838C19 7.48838 19.9 6.58838 21 6.58838C22.1 6.58838 23 7.48838 23 8.58838ZM23 8.58838C23 9.68838 22.1 10.5884 21 10.5884C20.82 10.5884 20.65 10.5684 20.49 10.5184L16.93 14.0684C16.98 14.2284 17 14.4084 17 14.5884C17 15.6884 16.1 16.5884 15 16.5884C13.9 16.5884 13 15.6884 13 14.5884C13 14.4084 13.02 14.2284 13.07 14.0684L10.52 11.5184C10.36 11.5684 10.18 11.5884 10 11.5884C9.82 11.5884 9.64 11.5684 9.48 11.5184L4.93 16.0784C4.98 16.2384 5 16.4084 5 16.5884C5 17.6884 4.1 18.5884 3 18.5884C1.9 18.5884 1 17.6884 1 16.5884C1 15.4884 1.9 14.5884 3 14.5884C3.18 14.5884 3.35 14.6084 3.51 14.6584L8.07 10.1084C8.02 9.94838 8 9.76838 8 9.58838C8 8.48838 8.9 7.58838 10 7.58838C11.1 7.58838 12 8.48838 12 9.58838C12 9.76838 11.98 9.94838 11.93 10.1084L14.48 12.6584C14.64 12.6084 14.82 12.5884 15 12.5884C15.18 12.5884 15.36 12.6084 15.52 12.6584L19.07 9.09838C19.02 8.93838 19 8.76838 19 8.58838C19 7.48838 19.9 6.58838 21 6.58838C22.1 6.58838 23 7.48838 23 8.58838Z" fill="current"/>
</g>
<defs>
<clipPath id="clip0_458_1932">
<rect width="24" height="24" fill="current" transform="translate(0 0.588379)"/>
</clipPath>
</defs>
</svg>
