<svg width="24" height="25" viewBox="0 0 24 25" fill="none" xmlns="http://www.w3.org/2000/svg">
<path d="M10.95 13.2883L9.575 11.8883C9.375 11.6883 9.13767 11.5883 8.863 11.5883C8.58767 11.5883 8.35 11.6883 8.15 11.8883C7.95 12.0883 7.846 12.3256 7.838 12.6003C7.82933 12.8756 7.925 13.1133 8.125 13.3133L10.25 15.4383C10.45 15.6383 10.6833 15.7383 10.95 15.7383C11.2167 15.7383 11.45 15.6383 11.65 15.4383L15.9 11.1883C16.1 10.9883 16.2 10.7506 16.2 10.4753C16.2 10.2006 16.1 9.96328 15.9 9.76328C15.7 9.56328 15.4627 9.46328 15.188 9.46328C14.9127 9.46328 14.675 9.56328 14.475 9.76328L10.95 13.2883ZM12 22.5133H11.75C11.6667 22.5133 11.5917 22.4966 11.525 22.4633C9.34167 21.7799 7.54167 20.4256 6.125 18.4003C4.70833 16.3756 4 14.1383 4 11.6883V6.96328C4 6.54661 4.121 6.17161 4.363 5.83828C4.60433 5.50495 4.91667 5.26328 5.3 5.11328L11.3 2.86328C11.5333 2.77995 11.7667 2.73828 12 2.73828C12.2333 2.73828 12.4667 2.77995 12.7 2.86328L18.7 5.11328C19.0833 5.26328 19.396 5.50495 19.638 5.83828C19.8793 6.17161 20 6.54661 20 6.96328V11.6883C20 14.1383 19.2917 16.3756 17.875 18.4003C16.4583 20.4256 14.6583 21.7799 12.475 22.4633C12.3917 22.4966 12.2333 22.5133 12 22.5133ZM12 20.4883C13.7333 19.9383 15.1667 18.8383 16.3 17.1883C17.4333 15.5383 18 13.7049 18 11.6883V6.96328L12 4.71328L6 6.96328V11.6883C6 13.7049 6.56667 15.5383 7.7 17.1883C8.83333 18.8383 10.2667 19.9383 12 20.4883Z" fill="current"/>
</svg>
