<svg width="280" height="128" viewBox="0 0 280 128" fill="none" xmlns="http://www.w3.org/2000/svg">
<g clip-path="url(#clip0_1432_1474)">
<ellipse cx="254.545" cy="6.36364" rx="6.36364" ry="6.36364" fill="current"/>
<ellipse cx="254.545" cy="25.4545" rx="6.36364" ry="6.36364" fill="current"/>
<ellipse cx="254.545" cy="44.5453" rx="6.36364" ry="6.36364" fill="current"/>
<ellipse cx="197.273" cy="63.6366" rx="6.36364" ry="6.36364" fill="current"/>
<ellipse cx="235.454" cy="25.4545" rx="6.36364" ry="6.36364" fill="current"/>
<ellipse cx="254.545" cy="63.6366" rx="6.36364" ry="6.36364" fill="current"/>
<ellipse cx="216.364" cy="44.5453" rx="6.36364" ry="6.36364" fill="current"/>
<ellipse cx="273.636" cy="82.7274" rx="6.36364" ry="6.36364" fill="current"/>
<ellipse cx="197.273" cy="82.7274" rx="6.36364" ry="6.36364" fill="current"/>
<ellipse cx="216.364" cy="82.7274" rx="6.36364" ry="6.36364" fill="current"/>
<ellipse cx="235.454" cy="82.7274" rx="6.36364" ry="6.36364" fill="current"/>
<ellipse cx="254.545" cy="82.7274" rx="6.36364" ry="6.36364" fill="current"/>
<ellipse cx="254.545" cy="101.818" rx="6.36364" ry="6.36364" fill="current"/>
<ellipse cx="254.545" cy="120.909" rx="6.36364" ry="6.36364" fill="current"/>
<g opacity="0.5">
<ellipse cx="139.999" cy="6.36364" rx="6.36364" ry="6.36364" fill="current"/>
<ellipse cx="159.09" cy="6.36364" rx="6.36364" ry="6.36364" fill="current"/>
<ellipse cx="139.999" cy="120.909" rx="6.36364" ry="6.36364" fill="current"/>
<ellipse cx="159.09" cy="120.909" rx="6.36364" ry="6.36364" fill="current"/>
<ellipse cx="120.909" cy="6.36364" rx="6.36364" ry="6.36364" fill="current"/>
<ellipse cx="120.909" cy="120.909" rx="6.36364" ry="6.36364" fill="current"/>
<ellipse cx="178.181" cy="25.4545" rx="6.36364" ry="6.36364" fill="current"/>
<ellipse cx="178.181" cy="44.5453" rx="6.36364" ry="6.36364" fill="current"/>
<ellipse cx="159.09" cy="44.5453" rx="6.36364" ry="6.36364" fill="current"/>
<ellipse cx="101.818" cy="63.6366" rx="6.36364" ry="6.36364" fill="current"/>
<ellipse cx="101.818" cy="25.4545" rx="6.36364" ry="6.36364" fill="current"/>
<ellipse cx="178.181" cy="63.6366" rx="6.36364" ry="6.36364" fill="current"/>
<ellipse cx="139.999" cy="63.6366" rx="6.36364" ry="6.36364" fill="current"/>
<ellipse cx="101.818" cy="44.5453" rx="6.36364" ry="6.36364" fill="current"/>
<ellipse cx="178.181" cy="82.7274" rx="6.36364" ry="6.36364" fill="current"/>
<ellipse cx="101.818" cy="82.7274" rx="6.36364" ry="6.36364" fill="current"/>
<ellipse cx="120.909" cy="82.7274" rx="6.36364" ry="6.36364" fill="current"/>
<ellipse cx="101.818" cy="101.818" rx="6.36364" ry="6.36364" fill="current"/>
<ellipse cx="178.181" cy="101.818" rx="6.36364" ry="6.36364" fill="current"/>
</g>
<ellipse cx="63.6361" cy="6.36364" rx="6.36364" ry="6.36364" fill="current"/>
<ellipse cx="63.6361" cy="25.4545" rx="6.36364" ry="6.36364" fill="current"/>
<ellipse cx="63.6361" cy="44.5453" rx="6.36364" ry="6.36364" fill="current"/>
<ellipse cx="6.36364" cy="63.6366" rx="6.36364" ry="6.36364" fill="current"/>
<ellipse cx="44.5453" cy="25.4545" rx="6.36364" ry="6.36364" fill="current"/>
<ellipse cx="63.6361" cy="63.6366" rx="6.36364" ry="6.36364" fill="current"/>
<ellipse cx="25.4545" cy="44.5453" rx="6.36364" ry="6.36364" fill="current"/>
<ellipse cx="82.7269" cy="82.7274" rx="6.36364" ry="6.36364" fill="current"/>
<ellipse cx="6.36364" cy="82.7274" rx="6.36364" ry="6.36364" fill="current"/>
<ellipse cx="25.4545" cy="82.7274" rx="6.36364" ry="6.36364" fill="current"/>
<ellipse cx="44.5453" cy="82.7274" rx="6.36364" ry="6.36364" fill="current"/>
<ellipse cx="63.6361" cy="82.7274" rx="6.36364" ry="6.36364" fill="current"/>
<ellipse cx="63.6361" cy="101.818" rx="6.36364" ry="6.36364" fill="current"/>
<ellipse cx="63.6361" cy="120.909" rx="6.36364" ry="6.36364" fill="current"/>
</g>
<defs>
<clipPath id="clip0_1432_1474">
<rect width="280" height="127.273" fill="white"/>
</clipPath>
</defs>
</svg>
