<svg width="307" height="38" viewBox="0 0 307 38" fill="none" xmlns="http://www.w3.org/2000/svg">
<g opacity="0.5">
<path d="M276.483 9.824C277.14 7.87467 278.251 6.322 279.815 5.166C281.379 3.98733 283.305 3.398 285.595 3.398C287.113 3.398 288.553 3.71533 289.913 4.35C291.295 4.98467 292.406 5.90267 293.245 7.104C294.083 8.28267 294.503 9.66533 294.503 11.252C294.503 13.1107 294.038 14.6633 293.109 15.91C292.202 17.1567 290.842 18.2333 289.029 19.14C288.031 19.6613 287.351 20.1373 286.989 20.568C286.649 20.976 286.467 21.5313 286.445 22.234L286.411 23.764H282.331L282.297 21.792C282.274 20.8173 282.376 20.0013 282.603 19.344C282.852 18.6867 283.271 18.0973 283.861 17.576C284.473 17.0547 285.334 16.522 286.445 15.978C287.737 15.298 288.666 14.6067 289.233 13.904C289.822 13.2013 290.117 12.3173 290.117 11.252C290.117 10.0507 289.686 9.11 288.825 8.43C287.963 7.72733 286.887 7.376 285.595 7.376C284.257 7.376 283.203 7.69333 282.433 8.328C281.662 8.96267 281.027 9.91467 280.529 11.184L276.483 9.824ZM284.405 33.012C283.634 33.012 282.977 32.74 282.433 32.196C281.889 31.6747 281.617 31.0287 281.617 30.258C281.617 29.4873 281.889 28.83 282.433 28.286C282.977 27.742 283.634 27.47 284.405 27.47C285.175 27.47 285.821 27.742 286.343 28.286C286.887 28.83 287.159 29.4873 287.159 30.258C287.159 31.0287 286.887 31.6747 286.343 32.196C285.821 32.74 285.175 33.012 284.405 33.012ZM302.834 23.764H298.822L298.38 3.908H303.276L302.834 23.764ZM300.828 33.012C300.057 33.012 299.4 32.74 298.856 32.196C298.334 31.6747 298.074 31.0287 298.074 30.258C298.074 29.4873 298.334 28.83 298.856 28.286C299.4 27.742 300.057 27.47 300.828 27.47C301.598 27.47 302.244 27.742 302.766 28.286C303.31 28.83 303.582 29.4873 303.582 30.258C303.582 31.0287 303.31 31.6747 302.766 32.196C302.244 32.74 301.598 33.012 300.828 33.012Z" fill="current"/>
<ellipse cx="233.923" cy="17.5388" rx="3.07692" ry="3.07692" fill="current"/>
<ellipse cx="249.308" cy="17.5388" rx="3.07692" ry="3.07692" fill="current"/>
<ellipse cx="264.692" cy="17.5388" rx="3.07692" ry="3.07692" fill="current"/>
<path d="M194.329 1.07715C194.486 1.07715 194.644 1.07715 194.847 1.10756C196.888 1.32512 198.882 1.51227 200.978 1.70893C200.798 1.77859 200.708 1.81409 200.617 1.84828C199.006 2.45552 198.014 3.63457 197.584 5.26705C197.217 6.66004 197.274 8.07311 197.472 9.50159C197.689 11.0664 198.072 12.5853 198.479 14.1041C198.721 15.0068 198.728 14.7969 197.895 15.1014C197.3 15.3191 196.698 15.5188 196.045 15.7454C196.473 16.3809 196.857 16.9659 197.255 17.5416C198.77 19.7311 200.293 21.9149 201.805 24.1063C203.033 25.8866 204.254 27.6719 205.467 29.4631C205.607 29.6708 205.726 29.685 205.936 29.594C209.375 28.0989 212.581 26.2067 215.566 23.9389C215.954 23.6434 216.336 23.3392 216.722 23.0391C216.729 23.2598 216.684 23.4409 216.608 23.6082C215.661 25.6914 214.479 27.6335 213.104 29.4616C211.538 31.5436 209.686 33.3533 207.767 35.0996C207.683 35.1762 207.547 35.1965 207.405 35.2341C206.438 35.0231 205.498 34.8349 204.564 34.6165C200.674 33.7056 196.898 32.4579 193.324 30.6529C190.36 29.1557 187.629 27.3399 185.578 24.6616C185.288 24.2833 184.909 23.8427 184.886 23.4138C184.808 21.9699 184.769 20.5088 184.902 19.0718C185.144 16.4671 185.952 14.0028 187.061 11.6358C188.663 8.21878 190.84 5.19143 193.306 2.35643C193.664 1.94476 193.989 1.50429 194.329 1.07715Z" fill="current"/>
<path d="M212.759 10.627C212.854 10.661 212.954 10.6885 212.976 10.746C214.033 13.449 215.081 16.1552 216.134 18.8594C216.305 19.2974 216.495 19.7277 216.689 20.1918C216.042 20.5581 215.399 20.9207 214.757 21.2865C212.668 22.4769 210.579 23.667 208.491 24.8604C207.937 25.1776 207.385 25.5006 206.839 25.8327C206.678 25.9308 206.593 25.9427 206.474 25.7615C204.689 23.0574 202.901 20.355 201.095 17.6655C200.903 17.38 200.947 17.2315 201.169 17.0244C202.578 15.7065 204.09 14.5264 205.744 13.5262C207.926 12.2066 210.241 11.2175 212.759 10.627ZM210.381 21.1001C210.659 20.9038 210.937 20.7073 211.202 20.5203C210.759 19.7733 210.329 19.0786 209.939 18.3617C209.862 18.2201 209.917 17.9887 209.954 17.8071C210.02 17.4743 210.215 17.1385 210.185 16.8201C210.048 15.3764 208.759 14.6061 207.404 15.1191C206.432 15.4872 205.913 16.9059 206.448 17.8334C206.947 18.6974 207.7 19.0169 208.678 18.8372C209.082 19.5709 209.491 20.2925 209.877 21.0257C210.006 21.2696 210.129 21.3248 210.381 21.1001Z" fill="current"/>
<path d="M202.269 12.7151C201.929 12.9185 201.615 13.1115 201.222 13.3532C200.977 12.3799 200.729 11.445 200.509 10.5033C200.232 9.30963 200.134 8.09948 200.281 6.87843C200.411 5.79302 200.978 4.93363 201.873 4.37434C202.188 4.17704 202.748 4.28787 203.176 4.36779C204.852 4.6807 206.173 5.58286 207.171 6.94705C207.601 7.53416 207.961 8.17201 208.354 8.78613C208.498 9.01272 208.469 9.13377 208.204 9.28457C206.227 10.4106 204.263 11.5615 202.269 12.7151Z" fill="current"/>
<path d="M216.702 11.3988C216.323 10.4673 215.954 9.56427 215.584 8.6613C215.602 8.63845 215.62 8.61562 215.637 8.59277C216.368 9.1137 217.119 9.6086 217.824 10.1624C218.633 10.7982 219.205 11.6303 219.602 12.5797C219.636 12.6616 219.695 12.7529 219.683 12.8314C219.546 13.782 219.709 14.791 219.144 15.6597C219.123 15.6919 219.105 15.7262 219.083 15.7571C218.731 16.2333 218.508 16.2341 218.292 15.6942C217.912 14.748 217.583 13.7813 217.231 12.8239C217.06 12.3576 216.884 11.8927 216.702 11.3988Z" fill="current"/>
<path d="M210.379 6.6943C209.685 5.87224 209.006 5.07333 208.327 4.27441C209.92 4.78122 211.41 5.4499 212.678 6.60928C212.202 6.98822 211.746 7.3507 211.253 7.74271C210.962 7.39544 210.678 7.05643 210.379 6.6943Z" fill="current"/>
<ellipse cx="141.615" cy="17.5388" rx="3.07692" ry="3.07692" fill="current"/>
<ellipse cx="157" cy="17.5388" rx="3.07692" ry="3.07692" fill="current"/>
<ellipse cx="172.385" cy="17.5388" rx="3.07692" ry="3.07692" fill="current"/>
<path d="M102.022 1.07715C102.18 1.07715 102.337 1.07715 102.54 1.10756C104.581 1.32512 106.576 1.51227 108.672 1.70893C108.491 1.77859 108.401 1.81409 108.31 1.84828C106.699 2.45552 105.707 3.63457 105.277 5.26705C104.91 6.66004 104.967 8.07311 105.165 9.50159C105.382 11.0664 105.765 12.5853 106.172 14.1041C106.414 15.0068 106.421 14.7969 105.588 15.1014C104.993 15.3191 104.391 15.5188 103.738 15.7454C104.166 16.3809 104.551 16.9659 104.949 17.5416C106.463 19.7311 107.986 21.9149 109.498 24.1063C110.726 25.8866 111.948 27.6719 113.16 29.4631C113.301 29.6708 113.42 29.685 113.629 29.594C117.068 28.0989 120.274 26.2067 123.259 23.9389C123.648 23.6434 124.03 23.3392 124.415 23.0391C124.423 23.2598 124.377 23.4409 124.301 23.6082C123.354 25.6914 122.172 27.6335 120.797 29.4616C119.231 31.5436 117.38 33.3533 115.461 35.0996C115.376 35.1762 115.241 35.1965 115.098 35.2341C114.131 35.0231 113.191 34.8349 112.258 34.6165C108.367 33.7056 104.591 32.4579 101.018 30.6529C98.0532 29.1557 95.3227 27.3399 93.2709 24.6616C92.9811 24.2833 92.6028 23.8427 92.5795 23.4138C92.501 21.9699 92.4622 20.5088 92.5955 19.0718C92.8372 16.4671 93.6454 14.0028 94.7548 11.6358C96.3564 8.21878 98.5332 5.19143 100.999 2.35643C101.357 1.94476 101.682 1.50429 102.022 1.07715Z" fill="current"/>
<path d="M120.452 10.627C120.548 10.661 120.647 10.6885 120.67 10.746C121.726 13.449 122.774 16.1552 123.828 18.8594C123.998 19.2974 124.189 19.7277 124.383 20.1918C123.736 20.5581 123.092 20.9207 122.45 21.2865C120.361 22.4769 118.272 23.667 116.185 24.8604C115.63 25.1776 115.078 25.5006 114.532 25.8327C114.371 25.9308 114.287 25.9427 114.167 25.7615C112.382 23.0574 110.595 20.355 108.788 17.6655C108.596 17.38 108.641 17.2315 108.862 17.0244C110.272 15.7065 111.784 14.5264 113.437 13.5262C115.619 12.2066 117.935 11.2175 120.452 10.627ZM118.074 21.1001C118.352 20.9038 118.63 20.7073 118.895 20.5203C118.452 19.7733 118.022 19.0786 117.632 18.3617C117.555 18.2201 117.611 17.9887 117.647 17.8071C117.713 17.4743 117.908 17.1385 117.878 16.8201C117.741 15.3764 116.452 14.6061 115.097 15.1191C114.126 15.4872 113.607 16.9059 114.142 17.8334C114.64 18.6974 115.393 19.0169 116.371 18.8372C116.775 19.5709 117.184 20.2925 117.571 21.0257C117.699 21.2696 117.822 21.3248 118.074 21.1001Z" fill="current"/>
<path d="M109.962 12.7151C109.622 12.9185 109.308 13.1115 108.915 13.3532C108.671 12.3799 108.422 11.445 108.203 10.5033C107.925 9.30963 107.827 8.09948 107.974 6.87843C108.105 5.79302 108.671 4.93363 109.566 4.37434C109.882 4.17704 110.442 4.28787 110.87 4.36779C112.545 4.6807 113.867 5.58286 114.865 6.94705C115.294 7.53416 115.654 8.17201 116.047 8.78613C116.192 9.01272 116.162 9.13377 115.898 9.28457C113.92 10.4106 111.957 11.5615 109.962 12.7151Z" fill="current"/>
<path d="M124.395 11.3988C124.016 10.4673 123.647 9.56427 123.277 8.6613C123.295 8.63845 123.313 8.61562 123.331 8.59277C124.062 9.1137 124.813 9.6086 125.518 10.1624C126.327 10.7982 126.898 11.6303 127.295 12.5797C127.329 12.6616 127.388 12.7529 127.377 12.8314C127.239 13.782 127.403 14.791 126.837 15.6597C126.816 15.6919 126.799 15.7262 126.776 15.7571C126.424 16.2333 126.202 16.2341 125.985 15.6942C125.605 14.748 125.276 13.7813 124.924 12.8239C124.753 12.3576 124.578 11.8927 124.395 11.3988Z" fill="current"/>
<path d="M118.072 6.6943C117.379 5.87224 116.7 5.07333 116.021 4.27441C117.614 4.78122 119.103 5.4499 120.372 6.60928C119.895 6.98822 119.439 7.3507 118.946 7.74271C118.655 7.39544 118.371 7.05643 118.072 6.6943Z" fill="current"/>
<ellipse cx="49.3084" cy="17.5388" rx="3.07692" ry="3.07692" fill="current"/>
<ellipse cx="64.6922" cy="17.5388" rx="3.07692" ry="3.07692" fill="current"/>
<ellipse cx="80.0779" cy="17.5388" rx="3.07692" ry="3.07692" fill="current"/>
<path d="M9.71472 1.07715C9.87216 1.07715 10.0297 1.07715 10.2328 1.10756C12.2733 1.32512 14.268 1.51227 16.3642 1.70893C16.1836 1.77859 16.0934 1.81409 16.0027 1.84828C14.3916 2.45552 13.3993 3.63457 12.9693 5.26705C12.6025 6.66004 12.6596 8.07311 12.8577 9.50159C13.0748 11.0664 13.4574 12.5853 13.8647 14.1041C14.1068 15.0068 14.1137 14.7969 13.2809 15.1014C12.6855 15.3191 12.0837 15.5188 11.4304 15.7454C11.8583 16.3809 12.243 16.9659 12.6412 17.5416C14.1557 19.7311 15.6784 21.9149 17.1903 24.1063C18.4186 25.8866 19.64 27.6719 20.8524 29.4631C20.9929 29.6708 21.1121 29.685 21.3213 29.594C24.7606 28.0989 27.9663 26.2067 30.9513 23.9389C31.34 23.6434 31.7221 23.3392 32.1073 23.0391C32.115 23.2598 32.0696 23.4409 31.9936 23.6082C31.0467 25.6914 29.8646 27.6335 28.4896 29.4616C26.9238 31.5436 25.0719 33.3533 23.1529 35.0996C23.0686 35.1762 22.9332 35.1965 22.7909 35.2341C21.8233 35.0231 20.8833 34.8349 19.9502 34.6165C16.0593 33.7056 12.2837 32.4579 8.70989 30.6529C5.74558 29.1557 3.01511 27.3399 0.963331 24.6616C0.673472 24.2833 0.295207 23.8427 0.271878 23.4138C0.193338 21.9699 0.154537 20.5088 0.287878 19.0718C0.529553 16.4671 1.3378 14.0028 2.44722 11.6358C4.04881 8.21878 6.22554 5.19143 8.69139 2.35643C9.04951 1.94476 9.37448 1.50429 9.71472 1.07715Z" fill="current"/>
<path d="M28.1446 10.627C28.2402 10.661 28.3397 10.6885 28.3622 10.746C29.4185 13.449 30.4667 16.1552 31.5201 18.8594C31.6908 19.2974 31.881 19.7277 32.0749 20.1918C31.4282 20.5581 30.7846 20.9207 30.1428 21.2865C28.0538 22.4769 25.9645 23.667 23.8771 24.8604C23.3224 25.1776 22.7707 25.5006 22.2248 25.8327C22.0636 25.9308 21.9792 25.9427 21.8596 25.7615C20.0748 23.0574 18.2872 20.355 16.4805 17.6655C16.2887 17.38 16.333 17.2315 16.5546 17.0244C17.9641 15.7065 19.4761 14.5264 21.1298 13.5262C23.3118 12.2066 25.6272 11.2175 28.1446 10.627ZM25.7666 21.1001C26.0446 20.9038 26.3227 20.7073 26.5875 20.5203C26.1449 19.7733 25.7144 19.0786 25.3245 18.3617C25.2475 18.2201 25.3031 17.9887 25.3393 17.8071C25.4056 17.4743 25.6007 17.1385 25.5706 16.8201C25.4339 15.3764 24.1444 14.6061 22.7898 15.1191C21.8179 15.4872 21.299 16.9059 21.834 17.8334C22.3323 18.6974 23.0853 19.0169 24.0636 18.8372C24.4678 19.5709 24.8766 20.2925 25.2629 21.0257C25.3915 21.2696 25.5146 21.3248 25.7666 21.1001Z" fill="current"/>
<path d="M17.6547 12.7151C17.3145 12.9185 17.0006 13.1115 16.6076 13.3532C16.3631 12.3799 16.1144 11.445 15.8952 10.5033C15.6173 9.30963 15.5199 8.09948 15.6666 6.87843C15.797 5.79302 16.3637 4.93363 17.2584 4.37434C17.574 4.17704 18.1341 4.28787 18.562 4.36779C20.2375 4.6807 21.5592 5.58286 22.5572 6.94705C22.9867 7.53416 23.3467 8.17201 23.7393 8.78613C23.8842 9.01272 23.8547 9.13377 23.5899 9.28457C21.6123 10.4106 19.649 11.5615 17.6547 12.7151Z" fill="current"/>
<path d="M32.0873 11.3988C31.7087 10.4673 31.3393 9.56427 30.9697 8.6613C30.9875 8.63845 31.0054 8.61562 31.0232 8.59277C31.7539 9.1137 32.5051 9.6086 33.2099 10.1624C34.0191 10.7982 34.5904 11.6303 34.9875 12.5797C35.0218 12.6616 35.0803 12.7529 35.0689 12.8314C34.9315 13.782 35.095 14.791 34.5298 15.6597C34.5089 15.6919 34.4911 15.7262 34.4683 15.7571C34.1163 16.2333 33.894 16.2341 33.6774 15.6942C33.2977 14.748 32.9688 13.7813 32.6169 12.8239C32.4454 12.3576 32.2699 11.8927 32.0873 11.3988Z" fill="current"/>
<path d="M25.7647 6.6943C25.0711 5.87224 24.392 5.07333 23.7129 4.27441C25.3061 4.78122 26.7958 5.4499 28.0641 6.60928C27.5874 6.98822 27.1314 7.3507 26.6383 7.74271C26.3473 7.39544 26.0633 7.05643 25.7647 6.6943Z" fill="current"/>
</g>
</svg>
