<svg width="317" height="43" viewBox="0 0 317 43" fill="none" xmlns="http://www.w3.org/2000/svg">
<g opacity="0.5" clip-path="url(#clip0_1361_1377)">
<mask id="mask0_1361_1377" style="mask-type:luminance" maskUnits="userSpaceOnUse" x="0" y="5" width="36" height="35">
<path d="M35.08 5H0V39.2319H35.08V5Z" fill="white"/>
</mask>
<g mask="url(#mask0_1361_1377)">
<path d="M9.71472 5.07715C9.87216 5.07715 10.0297 5.07715 10.2328 5.10756C12.2733 5.32512 14.268 5.51227 16.3642 5.70893C16.1836 5.77859 16.0934 5.81409 16.0027 5.84828C14.3916 6.45552 13.3993 7.63457 12.9693 9.26705C12.6025 10.66 12.6596 12.0731 12.8577 13.5016C13.0748 15.0664 13.4574 16.5853 13.8647 18.1041C14.1068 19.0068 14.1137 18.7969 13.2809 19.1014C12.6855 19.3191 12.0837 19.5188 11.4304 19.7454C11.8583 20.3809 12.243 20.9659 12.6412 21.5416C14.1557 23.7311 15.6784 25.9149 17.1903 28.1063C18.4187 29.8866 19.64 31.6719 20.8524 33.4631C20.9929 33.6708 21.1121 33.685 21.3213 33.594C24.7606 32.0989 27.9663 30.2067 30.9513 27.9389C31.34 27.6434 31.7221 27.3392 32.1073 27.0391C32.115 27.2598 32.0696 27.4409 31.9936 27.6082C31.0467 29.6914 29.8646 31.6335 28.4896 33.4616C26.9238 35.5436 25.0719 37.3533 23.1529 39.0996C23.0686 39.1762 22.9332 39.1965 22.7909 39.2341C21.8233 39.0231 20.8833 38.8349 19.9502 38.6165C16.0593 37.7056 12.2837 36.4579 8.70989 34.6529C5.74558 33.1557 3.01511 31.3399 0.963331 28.6616C0.673472 28.2833 0.295207 27.8427 0.271878 27.4138C0.193338 25.9699 0.154537 24.5088 0.287878 23.0718C0.529553 20.4671 1.3378 18.0028 2.44722 15.6358C4.04881 12.2188 6.22554 9.19143 8.69139 6.35643C9.04951 5.94476 9.37448 5.50429 9.71472 5.07715Z" fill="white"/>
<path d="M28.1446 14.627C28.2402 14.661 28.3396 14.6885 28.3622 14.746C29.4185 17.449 30.4667 20.1552 31.5201 22.8594C31.6908 23.2974 31.881 23.7277 32.0749 24.1918C31.4282 24.5581 30.7846 24.9207 30.1428 25.2865C28.0538 26.4769 25.9645 27.667 23.8771 28.8604C23.3224 29.1776 22.7707 29.5006 22.2248 29.8327C22.0636 29.9308 21.9792 29.9427 21.8596 29.7615C20.0748 27.0574 18.2872 24.355 16.4805 21.6655C16.2887 21.38 16.333 21.2315 16.5546 21.0244C17.9641 19.7065 19.4761 18.5264 21.1298 17.5262C23.3118 16.2066 25.6272 15.2175 28.1446 14.627ZM25.7666 25.1001C26.0446 24.9038 26.3227 24.7073 26.5875 24.5203C26.1449 23.7733 25.7144 23.0786 25.3245 22.3617C25.2475 22.2201 25.3031 21.9887 25.3393 21.8071C25.4056 21.4743 25.6007 21.1385 25.5706 20.8201C25.4339 19.3764 24.1444 18.6061 22.7898 19.1191C21.8179 19.4872 21.299 20.9059 21.834 21.8334C22.3323 22.6974 23.0853 23.0169 24.0636 22.8372C24.4678 23.5709 24.8766 24.2925 25.2629 25.0257C25.3915 25.2696 25.5146 25.3248 25.7666 25.1001Z" fill="white"/>
<path d="M17.6547 16.7151C17.3145 16.9185 17.0006 17.1115 16.6076 17.3532C16.3631 16.3799 16.1144 15.445 15.8952 14.5033C15.6173 13.3096 15.5199 12.0995 15.6666 10.8784C15.797 9.79302 16.3637 8.93363 17.2584 8.37434C17.574 8.17704 18.1341 8.28787 18.562 8.36779C20.2375 8.6807 21.5592 9.58286 22.5572 10.9471C22.9867 11.5342 23.3467 12.172 23.7393 12.7861C23.8842 13.0127 23.8547 13.1338 23.5899 13.2846C21.6123 14.4106 19.649 15.5615 17.6547 16.7151Z" fill="white"/>
<path d="M32.0873 15.3988C31.7087 14.4673 31.3393 13.5643 30.9697 12.6613C30.9875 12.6385 31.0054 12.6156 31.0232 12.5928C31.7539 13.1137 32.5051 13.6086 33.2099 14.1624C34.0191 14.7982 34.5904 15.6303 34.9875 16.5797C35.0218 16.6616 35.0803 16.7529 35.0689 16.8314C34.9315 17.782 35.095 18.791 34.5298 19.6597C34.5089 19.6919 34.4911 19.7262 34.4683 19.7571C34.1163 20.2333 33.894 20.2341 33.6774 19.6942C33.2977 18.748 32.9688 17.7813 32.6169 16.8239C32.4454 16.3576 32.2699 15.8927 32.0873 15.3988Z" fill="white"/>
<path d="M25.7647 10.6943C25.0711 9.87224 24.392 9.07333 23.7129 8.27441C25.3061 8.78122 26.7958 9.4499 28.0641 10.6093C27.5874 10.9882 27.1314 11.3507 26.6383 11.7427C26.3473 11.3954 26.0633 11.0564 25.7647 10.6943Z" fill="white"/>
</g>
</g>
<g opacity="0.5" clip-path="url(#clip1_1361_1377)">
<mask id="mask1_1361_1377" style="mask-type:luminance" maskUnits="userSpaceOnUse" x="92" y="5" width="36" height="35">
<path d="M127.388 5H92.3076V39.2319H127.388V5Z" fill="white"/>
</mask>
<g mask="url(#mask1_1361_1377)">
<path d="M102.022 5.07715C102.18 5.07715 102.337 5.07715 102.54 5.10756C104.581 5.32512 106.576 5.51227 108.672 5.70893C108.491 5.77859 108.401 5.81409 108.31 5.84828C106.699 6.45552 105.707 7.63457 105.277 9.26705C104.91 10.66 104.967 12.0731 105.165 13.5016C105.382 15.0664 105.765 16.5853 106.172 18.1041C106.414 19.0068 106.421 18.7969 105.588 19.1014C104.993 19.3191 104.391 19.5188 103.738 19.7454C104.166 20.3809 104.551 20.9659 104.949 21.5416C106.463 23.7311 107.986 25.9149 109.498 28.1063C110.726 29.8866 111.948 31.6719 113.16 33.4631C113.301 33.6708 113.42 33.685 113.629 33.594C117.068 32.0989 120.274 30.2067 123.259 27.9389C123.648 27.6434 124.03 27.3392 124.415 27.0391C124.423 27.2598 124.377 27.4409 124.301 27.6082C123.354 29.6914 122.172 31.6335 120.797 33.4616C119.231 35.5436 117.38 37.3533 115.461 39.0996C115.376 39.1762 115.241 39.1965 115.098 39.2341C114.131 39.0231 113.191 38.8349 112.258 38.6165C108.367 37.7056 104.591 36.4579 101.018 34.6529C98.0532 33.1557 95.3227 31.3399 93.2709 28.6616C92.9811 28.2833 92.6028 27.8427 92.5795 27.4138C92.501 25.9699 92.4622 24.5088 92.5955 23.0718C92.8372 20.4671 93.6454 18.0028 94.7548 15.6358C96.3564 12.2188 98.5332 9.19143 100.999 6.35643C101.357 5.94476 101.682 5.50429 102.022 5.07715Z" fill="white"/>
<path d="M120.452 14.627C120.548 14.661 120.647 14.6885 120.67 14.746C121.726 17.449 122.774 20.1552 123.828 22.8594C123.998 23.2974 124.189 23.7277 124.383 24.1918C123.736 24.5581 123.092 24.9207 122.45 25.2865C120.361 26.4769 118.272 27.667 116.185 28.8604C115.63 29.1776 115.078 29.5006 114.532 29.8327C114.371 29.9308 114.287 29.9427 114.167 29.7615C112.382 27.0574 110.595 24.355 108.788 21.6655C108.596 21.38 108.641 21.2315 108.862 21.0244C110.272 19.7065 111.784 18.5264 113.437 17.5262C115.619 16.2066 117.935 15.2175 120.452 14.627ZM118.074 25.1001C118.352 24.9038 118.63 24.7073 118.895 24.5203C118.452 23.7733 118.022 23.0786 117.632 22.3617C117.555 22.2201 117.611 21.9887 117.647 21.8071C117.713 21.4743 117.908 21.1385 117.878 20.8201C117.741 19.3764 116.452 18.6061 115.097 19.1191C114.126 19.4872 113.607 20.9059 114.142 21.8334C114.64 22.6974 115.393 23.0169 116.371 22.8372C116.775 23.5709 117.184 24.2925 117.571 25.0257C117.699 25.2696 117.822 25.3248 118.074 25.1001Z" fill="white"/>
<path d="M109.962 16.7151C109.622 16.9185 109.308 17.1115 108.915 17.3532C108.671 16.3799 108.422 15.445 108.203 14.5033C107.925 13.3096 107.827 12.0995 107.974 10.8784C108.105 9.79302 108.671 8.93363 109.566 8.37434C109.882 8.17704 110.442 8.28787 110.87 8.36779C112.545 8.6807 113.867 9.58286 114.865 10.9471C115.294 11.5342 115.654 12.172 116.047 12.7861C116.192 13.0127 116.162 13.1338 115.898 13.2846C113.92 14.4106 111.957 15.5615 109.962 16.7151Z" fill="white"/>
<path d="M124.395 15.3988C124.016 14.4673 123.647 13.5643 123.277 12.6613C123.295 12.6385 123.313 12.6156 123.331 12.5928C124.062 13.1137 124.813 13.6086 125.518 14.1624C126.327 14.7982 126.898 15.6303 127.295 16.5797C127.329 16.6616 127.388 16.7529 127.377 16.8314C127.239 17.782 127.403 18.791 126.837 19.6597C126.816 19.6919 126.799 19.7262 126.776 19.7571C126.424 20.2333 126.202 20.2341 125.985 19.6942C125.605 18.748 125.276 17.7813 124.924 16.8239C124.753 16.3576 124.578 15.8927 124.395 15.3988Z" fill="white"/>
<path d="M118.072 10.6943C117.379 9.87224 116.7 9.07333 116.021 8.27441C117.614 8.78122 119.103 9.4499 120.372 10.6093C119.895 10.9882 119.439 11.3507 118.946 11.7427C118.655 11.3954 118.371 11.0564 118.072 10.6943Z" fill="white"/>
</g>
</g>
<g opacity="0.5" clip-path="url(#clip2_1361_1377)">
<mask id="mask2_1361_1377" style="mask-type:luminance" maskUnits="userSpaceOnUse" x="184" y="5" width="36" height="35">
<path d="M219.694 5H184.614V39.2319H219.694V5Z" fill="white"/>
</mask>
<g mask="url(#mask2_1361_1377)">
<path d="M194.329 5.07715C194.486 5.07715 194.644 5.07715 194.847 5.10756C196.888 5.32512 198.882 5.51227 200.978 5.70893C200.798 5.77859 200.708 5.81409 200.617 5.84828C199.006 6.45552 198.014 7.63457 197.584 9.26705C197.217 10.66 197.274 12.0731 197.472 13.5016C197.689 15.0664 198.072 16.5853 198.479 18.1041C198.721 19.0068 198.728 18.7969 197.895 19.1014C197.3 19.3191 196.698 19.5188 196.045 19.7454C196.473 20.3809 196.857 20.9659 197.255 21.5416C198.77 23.7311 200.293 25.9149 201.805 28.1063C203.033 29.8866 204.254 31.6719 205.467 33.4631C205.607 33.6708 205.726 33.685 205.936 33.594C209.375 32.0989 212.581 30.2067 215.566 27.9389C215.954 27.6434 216.336 27.3392 216.722 27.0391C216.729 27.2598 216.684 27.4409 216.608 27.6082C215.661 29.6914 214.479 31.6335 213.104 33.4616C211.538 35.5436 209.686 37.3533 207.767 39.0996C207.683 39.1762 207.547 39.1965 207.405 39.2341C206.438 39.0231 205.498 38.8349 204.564 38.6165C200.674 37.7056 196.898 36.4579 193.324 34.6529C190.36 33.1557 187.629 31.3399 185.578 28.6616C185.288 28.2833 184.909 27.8427 184.886 27.4138C184.808 25.9699 184.769 24.5088 184.902 23.0718C185.144 20.4671 185.952 18.0028 187.061 15.6358C188.663 12.2188 190.84 9.19143 193.306 6.35643C193.664 5.94476 193.989 5.50429 194.329 5.07715Z" fill="white"/>
<path d="M212.759 14.627C212.854 14.661 212.954 14.6885 212.976 14.746C214.033 17.449 215.081 20.1552 216.134 22.8594C216.305 23.2974 216.495 23.7277 216.689 24.1918C216.042 24.5581 215.399 24.9207 214.757 25.2865C212.668 26.4769 210.579 27.667 208.491 28.8604C207.937 29.1776 207.385 29.5006 206.839 29.8327C206.678 29.9308 206.593 29.9427 206.474 29.7615C204.689 27.0574 202.901 24.355 201.095 21.6655C200.903 21.38 200.947 21.2315 201.169 21.0244C202.578 19.7065 204.09 18.5264 205.744 17.5262C207.926 16.2066 210.241 15.2175 212.759 14.627ZM210.381 25.1001C210.659 24.9038 210.937 24.7073 211.202 24.5203C210.759 23.7733 210.329 23.0786 209.939 22.3617C209.862 22.2201 209.917 21.9887 209.954 21.8071C210.02 21.4743 210.215 21.1385 210.185 20.8201C210.048 19.3764 208.759 18.6061 207.404 19.1191C206.432 19.4872 205.913 20.9059 206.448 21.8334C206.947 22.6974 207.7 23.0169 208.678 22.8372C209.082 23.5709 209.491 24.2925 209.877 25.0257C210.006 25.2696 210.129 25.3248 210.381 25.1001Z" fill="white"/>
<path d="M202.269 16.7151C201.929 16.9185 201.615 17.1115 201.222 17.3532C200.977 16.3799 200.729 15.445 200.509 14.5033C200.232 13.3096 200.134 12.0995 200.281 10.8784C200.411 9.79302 200.978 8.93363 201.873 8.37434C202.188 8.17704 202.748 8.28787 203.176 8.36779C204.852 8.6807 206.173 9.58286 207.171 10.9471C207.601 11.5342 207.961 12.172 208.354 12.7861C208.498 13.0127 208.469 13.1338 208.204 13.2846C206.227 14.4106 204.263 15.5615 202.269 16.7151Z" fill="white"/>
<path d="M216.702 15.3988C216.323 14.4673 215.954 13.5643 215.584 12.6613C215.602 12.6385 215.62 12.6156 215.637 12.5928C216.368 13.1137 217.119 13.6086 217.824 14.1624C218.633 14.7982 219.205 15.6303 219.602 16.5797C219.636 16.6616 219.695 16.7529 219.683 16.8314C219.546 17.782 219.709 18.791 219.144 19.6597C219.123 19.6919 219.105 19.7262 219.083 19.7571C218.731 20.2333 218.508 20.2341 218.292 19.6942C217.912 18.748 217.583 17.7813 217.231 16.8239C217.06 16.3576 216.884 15.8927 216.702 15.3988Z" fill="white"/>
<path d="M210.379 10.6943C209.685 9.87224 209.006 9.07333 208.327 8.27441C209.92 8.78122 211.41 9.4499 212.678 10.6093C212.202 10.9882 211.746 11.3507 211.253 11.7427C210.962 11.3954 210.678 11.0564 210.379 10.6943Z" fill="white"/>
</g>
</g>
<g opacity="0.5" clip-path="url(#clip3_1361_1377)">
<path d="M276.567 11.568C277.301 9.38933 278.543 7.654 280.291 6.362C282.039 5.04467 284.192 4.386 286.751 4.386C288.448 4.386 290.057 4.74067 291.577 5.45C293.122 6.15933 294.363 7.18533 295.301 8.528C296.238 9.84533 296.707 11.3907 296.707 13.164C296.707 15.2413 296.187 16.9767 295.149 18.37C294.135 19.7633 292.615 20.9667 290.589 21.98C289.474 22.5627 288.714 23.0947 288.309 23.576C287.929 24.032 287.726 24.6527 287.701 25.438L287.663 27.148H283.103L283.065 24.944C283.039 23.8547 283.153 22.9427 283.407 22.208C283.685 21.4733 284.154 20.8147 284.813 20.232C285.497 19.6493 286.459 19.054 287.701 18.446C289.145 17.686 290.183 16.9133 290.817 16.128C291.475 15.3427 291.805 14.3547 291.805 13.164C291.805 11.8213 291.323 10.77 290.361 10.01C289.398 9.22467 288.195 8.832 286.751 8.832C285.256 8.832 284.078 9.18667 283.217 9.896C282.355 10.6053 281.646 11.6693 281.089 13.088L276.567 11.568ZM285.421 37.484C284.559 37.484 283.825 37.18 283.217 36.572C282.609 35.9893 282.305 35.2673 282.305 34.406C282.305 33.5447 282.609 32.81 283.217 32.202C283.825 31.594 284.559 31.29 285.421 31.29C286.282 31.29 287.004 31.594 287.587 32.202C288.195 32.81 288.499 33.5447 288.499 34.406C288.499 35.2673 288.195 35.9893 287.587 36.572C287.004 37.18 286.282 37.484 285.421 37.484ZM306.018 27.148H301.534L301.04 4.956H306.512L306.018 27.148ZM303.776 37.484C302.914 37.484 302.18 37.18 301.572 36.572C300.989 35.9893 300.698 35.2673 300.698 34.406C300.698 33.5447 300.989 32.81 301.572 32.202C302.18 31.594 302.914 31.29 303.776 31.29C304.637 31.29 305.359 31.594 305.942 32.202C306.55 32.81 306.854 33.5447 306.854 34.406C306.854 35.2673 306.55 35.9893 305.942 36.572C305.359 37.18 304.637 37.484 303.776 37.484Z" fill="white"/>
</g>
<ellipse opacity="0.5" cx="49.3084" cy="21.5388" rx="3.07692" ry="3.07692" fill="white"/>
<ellipse opacity="0.5" cx="64.6922" cy="21.5388" rx="3.07692" ry="3.07692" fill="white"/>
<ellipse opacity="0.5" cx="80.0779" cy="21.5388" rx="3.07692" ry="3.07692" fill="white"/>
<ellipse opacity="0.5" cx="141.615" cy="21.5388" rx="3.07692" ry="3.07692" fill="white"/>
<ellipse opacity="0.5" cx="157" cy="21.5388" rx="3.07692" ry="3.07692" fill="white"/>
<ellipse opacity="0.5" cx="172.385" cy="21.5388" rx="3.07692" ry="3.07692" fill="white"/>
<ellipse opacity="0.5" cx="233.923" cy="21.5388" rx="3.07692" ry="3.07692" fill="white"/>
<ellipse opacity="0.5" cx="249.308" cy="21.5388" rx="3.07692" ry="3.07692" fill="white"/>
<ellipse opacity="0.5" cx="264.692" cy="21.5388" rx="3.07692" ry="3.07692" fill="white"/>
<defs>
<clipPath id="clip0_1361_1377">
<rect width="35.08" height="34.2319" fill="white" transform="translate(0 5)"/>
</clipPath>
<clipPath id="clip1_1361_1377">
<rect width="35.08" height="34.2319" fill="white" transform="translate(92.3076 5)"/>
</clipPath>
<clipPath id="clip2_1361_1377">
<rect width="35.08" height="34.2319" fill="white" transform="translate(184.614 5)"/>
</clipPath>
<clipPath id="clip3_1361_1377">
<rect width="43.0769" height="42.0355" fill="white" transform="translate(273.923)"/>
</clipPath>
</defs>
</svg>
