<svg width="320" height="43" viewBox="0 0 320 43" fill="none" xmlns="http://www.w3.org/2000/svg">
<g opacity="0.5" clip-path="url(#clip0_1361_1377)">
<mask id="mask0_1361_1377" style="mask-type:luminance" maskUnits="userSpaceOnUse" x="0" y="0" width="44" height="43">
<path d="M43.0769 0H0V42.0355H43.0769V0Z" fill="white"/>
</mask>
<g mask="url(#mask0_1361_1377)">
<path d="M11.9286 0.0947266C12.1219 0.0947266 12.3153 0.0947266 12.5648 0.132073C15.0705 0.399227 17.5199 0.629035 20.0939 0.870532C19.8722 0.956066 19.7614 0.999663 19.65 1.04165C17.6716 1.78732 16.4531 3.23515 15.9251 5.23977C15.4746 6.95031 15.5448 8.68551 15.7881 10.4396C16.0546 12.3611 16.5245 14.2263 17.0246 16.0913C17.3219 17.1998 17.3303 16.9421 16.3077 17.316C15.5766 17.5833 14.8376 17.8285 14.0354 18.1067C14.5608 18.8871 15.0332 19.6055 15.5222 20.3125C17.3819 23.0011 19.2518 25.6827 21.1083 28.3736C22.6167 30.5598 24.1164 32.752 25.6052 34.9516C25.7778 35.2067 25.9241 35.2241 26.181 35.1124C30.4043 33.2764 34.3408 30.9529 38.0063 28.1681C38.4836 27.8053 38.9528 27.4317 39.4258 27.0632C39.4353 27.3342 39.3795 27.5566 39.2862 27.762C38.1234 30.3201 36.6719 32.7049 34.9834 34.9498C33.0607 37.5064 30.7866 39.7286 28.4302 41.873C28.3267 41.9671 28.1603 41.992 27.9856 42.0382C26.7975 41.7791 25.6431 41.548 24.4974 41.2797C19.7194 40.1613 15.0832 38.6291 10.6947 36.4126C7.05463 34.5741 3.70172 32.3444 1.18222 29.0556C0.826282 28.591 0.361788 28.0499 0.333141 27.5233C0.236697 25.7503 0.189051 23.9561 0.352789 22.1915C0.649555 18.993 1.64205 15.967 3.00438 13.0604C4.97106 8.86438 7.64401 5.14691 10.672 1.66563C11.1117 1.16012 11.5108 0.61924 11.9286 0.0947266Z" fill="white"/>
<path d="M34.5597 11.8213C34.6771 11.8631 34.7992 11.8968 34.8269 11.9675C36.124 15.2867 37.4112 18.6098 38.7047 21.9304C38.9142 22.4683 39.1479 22.9967 39.386 23.5665C38.5918 24.0164 37.8015 24.4617 37.0135 24.9108C34.4482 26.3726 31.8827 27.834 29.3194 29.2994C28.6382 29.6889 27.9608 30.0856 27.2904 30.4934C27.0924 30.6138 26.9888 30.6285 26.842 30.4059C24.6503 27.0854 22.4552 23.7669 20.2366 20.4643C20.0011 20.1137 20.0556 19.9315 20.3276 19.6771C22.0585 18.0587 23.9151 16.6096 25.9458 15.3814C28.6252 13.761 31.4685 12.5465 34.5597 11.8213ZM31.6396 24.682C31.981 24.4408 32.3224 24.1996 32.6476 23.9699C32.1041 23.0527 31.5755 22.1996 31.0968 21.3193C31.0022 21.1454 31.0705 20.8613 31.1149 20.6382C31.1963 20.2296 31.4359 19.8172 31.3989 19.4263C31.231 17.6534 29.6476 16.7075 27.9843 17.3375C26.7908 17.7895 26.1535 19.5316 26.8105 20.6705C27.4224 21.7314 28.347 22.1238 29.5484 21.9032C30.0447 22.8041 30.5467 23.6902 31.0211 24.5906C31.1789 24.8901 31.3301 24.9578 31.6396 24.682Z" fill="white"/>
<path d="M21.6781 14.3858C21.2603 14.6357 20.8749 14.8727 20.3923 15.1694C20.0921 13.9743 19.7866 12.8263 19.5175 11.6698C19.1763 10.2041 19.0566 8.71804 19.2368 7.21864C19.3969 5.8858 20.0928 4.83049 21.1914 4.1437C21.579 3.90143 22.2667 4.03753 22.7922 4.13567C24.8496 4.5199 26.4727 5.62773 27.6981 7.30291C28.2255 8.02385 28.6677 8.8071 29.1498 9.56122C29.3277 9.83947 29.2915 9.98811 28.9663 10.1733C26.5379 11.556 24.127 12.9693 21.6781 14.3858Z" fill="white"/>
<path d="M39.4016 12.7699C38.9368 11.6261 38.4831 10.5172 38.0293 9.40837C38.0512 9.38031 38.0731 9.35227 38.095 9.32422C38.9922 9.9639 39.9146 10.5716 40.7802 11.2517C41.7739 12.0323 42.4754 13.0542 42.963 14.22C43.0051 14.3206 43.077 14.4327 43.0629 14.5291C42.8942 15.6964 43.095 16.9354 42.4009 18.0021C42.3752 18.0416 42.3534 18.0838 42.3254 18.1217C41.8932 18.7065 41.6202 18.7075 41.3542 18.0446C40.8879 16.8826 40.4841 15.6956 40.0519 14.5199C39.8414 13.9473 39.6259 13.3764 39.4016 12.7699Z" fill="white"/>
<path d="M31.6368 6.99301C30.7851 5.98356 29.9511 5.00252 29.1172 4.02148C31.0736 4.64382 32.9029 5.46494 34.4603 6.88862C33.875 7.35394 33.315 7.79905 32.7094 8.28043C32.3521 7.85398 32.0033 7.4377 31.6368 6.99301Z" fill="white"/>
</g>
</g>
<g opacity="0.5" clip-path="url(#clip1_1361_1377)">
<mask id="mask1_1361_1377" style="mask-type:luminance" maskUnits="userSpaceOnUse" x="92" y="0" width="44" height="43">
<path d="M135.385 0H92.3076V42.0355H135.385V0Z" fill="white"/>
</mask>
<g mask="url(#mask1_1361_1377)">
<path d="M104.236 0.0947266C104.43 0.0947266 104.623 0.0947266 104.872 0.132073C107.378 0.399227 109.827 0.629035 112.401 0.870532C112.18 0.956066 112.069 0.999663 111.958 1.04165C109.979 1.78732 108.761 3.23515 108.233 5.23977C107.782 6.95031 107.852 8.68551 108.096 10.4396C108.362 12.3611 108.832 14.2263 109.332 16.0913C109.63 17.1998 109.638 16.9421 108.615 17.316C107.884 17.5833 107.145 17.8285 106.343 18.1067C106.868 18.8871 107.341 19.6055 107.83 20.3125C109.69 23.0011 111.559 25.6827 113.416 28.3736C114.924 30.5598 116.424 32.752 117.913 34.9516C118.085 35.2067 118.232 35.2241 118.489 35.1124C122.712 33.2764 126.648 30.9529 130.314 28.1681C130.791 27.8053 131.26 27.4317 131.733 27.0632C131.743 27.3342 131.687 27.5566 131.594 27.762C130.431 30.3201 128.979 32.7049 127.291 34.9498C125.368 37.5064 123.094 39.7286 120.738 41.873C120.634 41.9671 120.468 41.992 120.293 42.0382C119.105 41.7791 117.951 41.548 116.805 41.2797C112.027 40.1613 107.391 38.6291 103.002 36.4126C99.3622 34.5741 96.0093 32.3444 93.4898 29.0556C93.1339 28.591 92.6694 28.0499 92.6408 27.5233C92.5443 25.7503 92.4967 23.9561 92.6604 22.1915C92.9572 18.993 93.9497 15.967 95.312 13.0604C97.2787 8.86438 99.9516 5.14691 102.98 1.66563C103.419 1.16012 103.818 0.61924 104.236 0.0947266Z" fill="white"/>
<path d="M126.867 11.8213C126.985 11.8631 127.107 11.8968 127.134 11.9675C128.432 15.2867 129.719 18.6098 131.012 21.9304C131.222 22.4683 131.456 22.9967 131.694 23.5665C130.899 24.0164 130.109 24.4617 129.321 24.9108C126.756 26.3726 124.19 27.834 121.627 29.2994C120.946 29.6889 120.268 30.0856 119.598 30.4934C119.4 30.6138 119.296 30.6285 119.15 30.4059C116.958 27.0854 114.763 23.7669 112.544 20.4643C112.309 20.1137 112.363 19.9315 112.635 19.6771C114.366 18.0587 116.223 16.6096 118.253 15.3814C120.933 13.761 123.776 12.5465 126.867 11.8213ZM123.947 24.682C124.289 24.4408 124.63 24.1996 124.955 23.9699C124.412 23.0527 123.883 22.1996 123.404 21.3193C123.31 21.1454 123.378 20.8613 123.422 20.6382C123.504 20.2296 123.744 19.8172 123.706 19.4263C123.539 17.6534 121.955 16.7075 120.292 17.3375C119.098 17.7895 118.461 19.5316 119.118 20.6705C119.73 21.7314 120.655 22.1238 121.856 21.9032C122.352 22.8041 122.854 23.6902 123.329 24.5906C123.487 24.8901 123.638 24.9578 123.947 24.682Z" fill="white"/>
<path d="M113.986 14.3858C113.568 14.6357 113.183 14.8727 112.7 15.1694C112.4 13.9743 112.094 12.8263 111.825 11.6698C111.484 10.2041 111.364 8.71804 111.544 7.21864C111.704 5.8858 112.4 4.83049 113.499 4.1437C113.887 3.90143 114.574 4.03753 115.1 4.13567C117.157 4.5199 118.78 5.62773 120.006 7.30291C120.533 8.02385 120.975 8.8071 121.457 9.56122C121.635 9.83947 121.599 9.98811 121.274 10.1733C118.845 11.556 116.435 12.9693 113.986 14.3858Z" fill="white"/>
<path d="M131.709 12.7699C131.244 11.6261 130.791 10.5172 130.337 9.40837C130.359 9.38031 130.381 9.35227 130.403 9.32422C131.3 9.9639 132.222 10.5716 133.088 11.2517C134.081 12.0323 134.783 13.0542 135.271 14.22C135.313 14.3206 135.385 14.4327 135.371 14.5291C135.202 15.6964 135.403 16.9354 134.709 18.0021C134.683 18.0416 134.661 18.0838 134.633 18.1217C134.201 18.7065 133.928 18.7075 133.662 18.0446C133.196 16.8826 132.792 15.6956 132.36 14.5199C132.149 13.9473 131.934 13.3764 131.709 12.7699Z" fill="white"/>
<path d="M123.944 6.99301C123.093 5.98356 122.259 5.00252 121.425 4.02148C123.381 4.64382 125.211 5.46494 126.768 6.88862C126.183 7.35394 125.623 7.79905 125.017 8.28043C124.66 7.85398 124.311 7.4377 123.944 6.99301Z" fill="white"/>
</g>
</g>
<g opacity="0.5" clip-path="url(#clip2_1361_1377)">
<mask id="mask2_1361_1377" style="mask-type:luminance" maskUnits="userSpaceOnUse" x="184" y="0" width="44" height="43">
<path d="M227.691 0H184.614V42.0355H227.691V0Z" fill="white"/>
</mask>
<g mask="url(#mask2_1361_1377)">
<path d="M196.543 0.0947266C196.736 0.0947266 196.93 0.0947266 197.179 0.132073C199.685 0.399227 202.134 0.629035 204.708 0.870532C204.486 0.956066 204.376 0.999663 204.264 1.04165C202.286 1.78732 201.067 3.23515 200.539 5.23977C200.089 6.95031 200.159 8.68551 200.402 10.4396C200.669 12.3611 201.139 14.2263 201.639 16.0913C201.936 17.1998 201.945 16.9421 200.922 17.316C200.191 17.5833 199.452 17.8285 198.65 18.1067C199.175 18.8871 199.648 19.6055 200.136 20.3125C201.996 23.0011 203.866 25.6827 205.723 28.3736C207.231 30.5598 208.731 32.752 210.219 34.9516C210.392 35.2067 210.538 35.2241 210.795 35.1124C215.019 33.2764 218.955 30.9529 222.621 28.1681C223.098 27.8053 223.567 27.4317 224.04 27.0632C224.05 27.3342 223.994 27.5566 223.9 27.762C222.738 30.3201 221.286 32.7049 219.598 34.9498C217.675 37.5064 215.401 39.7286 213.044 41.873C212.941 41.9671 212.775 41.992 212.6 42.0382C211.412 41.7791 210.257 41.548 209.112 41.2797C204.334 40.1613 199.697 38.6291 195.309 36.4126C191.669 34.5741 188.316 32.3444 185.796 29.0556C185.441 28.591 184.976 28.0499 184.947 27.5233C184.851 25.7503 184.803 23.9561 184.967 22.1915C185.264 18.993 186.256 15.967 187.619 13.0604C189.585 8.86438 192.258 5.14691 195.286 1.66563C195.726 1.16012 196.125 0.61924 196.543 0.0947266Z" fill="white"/>
<path d="M219.174 11.8213C219.291 11.8631 219.413 11.8968 219.441 11.9675C220.738 15.2867 222.025 18.6098 223.319 21.9304C223.528 22.4683 223.762 22.9967 224 23.5665C223.206 24.0164 222.416 24.4617 221.628 24.9108C219.062 26.3726 216.497 27.834 213.934 29.2994C213.252 29.6889 212.575 30.0856 211.905 30.4934C211.707 30.6138 211.603 30.6285 211.456 30.4059C209.265 27.0854 207.069 23.7669 204.851 20.4643C204.615 20.1137 204.67 19.9315 204.942 19.6771C206.673 18.0587 208.529 16.6096 210.56 15.3814C213.239 13.761 216.083 12.5465 219.174 11.8213ZM216.254 24.682C216.595 24.4408 216.937 24.1996 217.262 23.9699C216.718 23.0527 216.19 22.1996 215.711 21.3193C215.616 21.1454 215.685 20.8613 215.729 20.6382C215.811 20.2296 216.05 19.8172 216.013 19.4263C215.845 17.6534 214.262 16.7075 212.599 17.3375C211.405 17.7895 210.768 19.5316 211.425 20.6705C212.037 21.7314 212.961 22.1238 214.163 21.9032C214.659 22.8041 215.161 23.6902 215.635 24.5906C215.793 24.8901 215.944 24.9578 216.254 24.682Z" fill="white"/>
<path d="M206.292 14.3858C205.875 14.6357 205.489 14.8727 205.007 15.1694C204.706 13.9743 204.401 12.8263 204.132 11.6698C203.791 10.2041 203.671 8.71804 203.851 7.21864C204.011 5.8858 204.707 4.83049 205.806 4.1437C206.193 3.90143 206.881 4.03753 207.406 4.13567C209.464 4.5199 211.087 5.62773 212.312 7.30291C212.84 8.02385 213.282 8.8071 213.764 9.56122C213.942 9.83947 213.906 9.98811 213.581 10.1733C211.152 11.556 208.741 12.9693 206.292 14.3858Z" fill="white"/>
<path d="M224.016 12.7699C223.551 11.6261 223.097 10.5172 222.644 9.40837C222.665 9.38031 222.687 9.35227 222.709 9.32422C223.606 9.9639 224.529 10.5716 225.394 11.2517C226.388 12.0323 227.09 13.0542 227.577 14.22C227.619 14.3206 227.691 14.4327 227.677 14.5291C227.508 15.6964 227.709 16.9354 227.015 18.0021C226.989 18.0416 226.968 18.0838 226.94 18.1217C226.507 18.7065 226.234 18.7075 225.968 18.0446C225.502 16.8826 225.098 15.6956 224.666 14.5199C224.456 13.9473 224.24 13.3764 224.016 12.7699Z" fill="white"/>
<path d="M216.251 6.99301C215.399 5.98356 214.565 5.00252 213.731 4.02148C215.688 4.64382 217.517 5.46494 219.075 6.88862C218.489 7.35394 217.929 7.79905 217.324 8.28043C216.966 7.85398 216.618 7.4377 216.251 6.99301Z" fill="white"/>
</g>
</g>
<g opacity="0.5" clip-path="url(#clip3_1361_1377)">
<path d="M273.649 10.184C274.499 7.60267 275.981 5.54933 278.093 4.024C280.205 2.49866 282.771 1.736 285.793 1.736C287.787 1.736 289.694 2.16133 291.513 3.012C293.361 3.83333 294.857 5.05066 296.001 6.664C297.174 8.248 297.761 10.1253 297.761 12.296C297.761 14.7013 297.174 16.74 296.001 18.412C294.827 20.084 293.038 21.5067 290.633 22.68C289.371 23.296 288.521 23.8533 288.081 24.352C287.641 24.8213 287.406 25.452 287.377 26.244L287.333 28.048H280.909L280.865 25.496C280.835 24.176 280.967 23.0907 281.261 22.24C281.554 21.36 282.097 20.568 282.889 19.864C283.71 19.16 284.898 18.4413 286.453 17.708C288.007 16.9453 289.122 16.168 289.797 15.376C290.501 14.5547 290.853 13.528 290.853 12.296C290.853 10.9467 290.369 9.90533 289.401 9.172C288.433 8.40933 287.23 8.028 285.793 8.028C284.297 8.028 283.109 8.36533 282.229 9.04C281.349 9.71467 280.615 10.7853 280.029 12.252L273.649 10.184ZM284.121 40.324C282.977 40.324 281.994 39.9133 281.173 39.092C280.381 38.3 279.985 37.332 279.985 36.188C279.985 35.044 280.381 34.076 281.173 33.284C281.994 32.4627 282.977 32.052 284.121 32.052C285.265 32.052 286.233 32.4627 287.025 33.284C287.846 34.076 288.257 35.044 288.257 36.188C288.257 37.332 287.846 38.3 287.025 39.092C286.233 39.9133 285.265 40.324 284.121 40.324Z" fill="white"/>
</g>
<ellipse opacity="0.5" cx="52.3084" cy="21.5388" rx="3.07692" ry="3.07692" fill="white"/>
<ellipse opacity="0.5" cx="67.6922" cy="21.5388" rx="3.07692" ry="3.07692" fill="white"/>
<ellipse opacity="0.5" cx="83.0779" cy="21.5388" rx="3.07692" ry="3.07692" fill="white"/>
<ellipse opacity="0.5" cx="144.615" cy="21.5388" rx="3.07692" ry="3.07692" fill="white"/>
<ellipse opacity="0.5" cx="160" cy="21.5388" rx="3.07692" ry="3.07692" fill="white"/>
<ellipse opacity="0.5" cx="175.385" cy="21.5388" rx="3.07692" ry="3.07692" fill="white"/>
<ellipse opacity="0.5" cx="236.923" cy="21.5388" rx="3.07692" ry="3.07692" fill="white"/>
<ellipse opacity="0.5" cx="252.308" cy="21.5388" rx="3.07692" ry="3.07692" fill="white"/>
<ellipse opacity="0.5" cx="267.692" cy="21.5388" rx="3.07692" ry="3.07692" fill="white"/>
<defs>
<clipPath id="clip0_1361_1377">
<rect width="43.0769" height="42.0355" fill="white"/>
</clipPath>
<clipPath id="clip1_1361_1377">
<rect width="43.0769" height="42.0355" fill="white" transform="translate(92.3076)"/>
</clipPath>
<clipPath id="clip2_1361_1377">
<rect width="43.0769" height="42.0355" fill="white" transform="translate(184.614)"/>
</clipPath>
<clipPath id="clip3_1361_1377">
<rect width="43.0769" height="42.0355" fill="white" transform="translate(276.923)"/>
</clipPath>
</defs>
</svg>
