<svg width="455" height="444" viewBox="0 0 455 444" fill="none" xmlns="http://www.w3.org/2000/svg">
<g clip-path="url(#clip0_1214_1272)">
<path d="M126 1C128.042 1 130.085 1 132.72 1.39447C159.186 4.21629 185.058 6.64364 212.246 9.19445C209.904 10.0979 208.734 10.5584 207.557 11.0019C186.661 18.878 173.79 34.1707 168.213 55.3446C163.455 73.4121 164.196 91.7402 166.766 110.268C169.581 130.564 174.544 150.265 179.827 169.964C182.967 181.672 183.056 178.95 172.254 182.9C164.532 185.723 156.726 188.313 148.253 191.252C153.803 199.495 158.793 207.083 163.958 214.55C183.601 242.949 203.351 271.273 222.961 299.696C238.893 322.788 254.734 345.943 270.459 369.176C272.282 371.87 273.828 372.054 276.541 370.874C321.15 351.482 362.729 326.94 401.446 297.525C406.488 293.693 411.444 289.747 416.44 285.855C416.54 288.717 415.951 291.066 414.965 293.236C402.683 320.256 387.351 345.445 369.517 369.157C349.208 396.161 325.188 419.633 300.298 442.283C299.205 443.277 297.448 443.54 295.602 444.028C283.053 441.291 270.86 438.85 258.758 436.017C208.291 424.203 159.321 408.02 112.967 384.608C74.5188 365.189 39.1037 341.637 12.4914 306.899C8.73182 301.992 3.8256 296.277 3.52301 290.714C2.50432 271.987 2.00106 253.036 3.73054 234.397C6.86514 200.613 17.3484 168.651 31.738 137.95C52.5111 93.6295 80.7441 54.3637 112.727 17.5927C117.372 12.2532 121.587 6.54018 126 1Z" fill="current"/>
<path d="M365.038 124.861C366.278 125.303 367.568 125.659 367.86 126.405C381.561 161.464 395.157 196.565 408.82 231.639C411.033 237.32 413.501 242.901 416.016 248.92C407.627 253.672 399.28 258.375 390.956 263.119C363.86 278.559 336.762 293.995 309.687 309.474C302.492 313.588 295.337 317.778 288.256 322.085C286.165 323.357 285.071 323.512 283.52 321.161C260.37 286.088 237.184 251.037 213.75 216.153C211.263 212.45 211.838 210.525 214.712 207.838C232.994 190.744 252.605 175.438 274.054 162.465C302.355 145.349 332.387 132.521 365.038 124.861ZM334.195 260.702C337.801 258.155 341.407 255.607 344.842 253.181C339.101 243.493 333.518 234.482 328.461 225.184C327.462 223.347 328.183 220.346 328.652 217.99C329.512 213.674 332.043 209.318 331.652 205.189C329.879 186.463 313.154 176.472 295.585 183.126C282.979 187.9 276.248 206.301 283.187 218.331C289.65 229.537 299.417 233.681 312.106 231.351C317.349 240.867 322.651 250.226 327.662 259.737C329.329 262.9 330.926 263.616 334.195 260.702Z" fill="current"/>
<path d="M228.98 151.95C224.567 154.589 220.496 157.092 215.398 160.226C212.227 147.603 209.001 135.477 206.158 123.262C202.554 107.78 201.29 92.0839 203.193 76.2464C204.884 62.1683 212.235 51.0216 223.839 43.7674C227.933 41.2084 235.197 42.6459 240.747 43.6825C262.479 47.741 279.622 59.4424 292.566 77.1365C298.137 84.7515 302.807 93.0246 307.899 100.99C309.778 103.929 309.396 105.499 305.961 107.455C280.311 122.06 254.846 136.988 228.98 151.95Z" fill="current"/>
<path d="M416.179 134.877C411.269 122.796 406.477 111.083 401.684 99.3712C401.915 99.0749 402.147 98.7787 402.378 98.4824C411.855 105.239 421.598 111.658 430.74 118.841C441.236 127.087 448.646 137.88 453.796 150.194C454.241 151.257 455 152.441 454.852 153.459C453.07 165.789 455.19 178.876 447.859 190.143C447.588 190.56 447.357 191.006 447.062 191.406C442.496 197.583 439.613 197.593 436.803 190.591C431.878 178.318 427.613 165.78 423.048 153.362C420.824 147.314 418.548 141.284 416.179 134.877Z" fill="current"/>
<path d="M334.17 73.8595C325.174 63.1971 316.365 52.8349 307.557 42.4727C328.222 49.0461 347.544 57.7192 363.994 72.7568C357.811 77.6718 351.896 82.3733 345.5 87.4578C341.726 82.9535 338.042 78.5565 334.17 73.8595Z" fill="current"/>
</g>
<defs>
<clipPath id="clip0_1214_1272">
<rect width="455" height="444" fill="white"/>
</clipPath>
</defs>
</svg>
